<svg width="38" height="36" viewBox="0 0 38 36" fill="none" xmlns="http://www.w3.org/2000/svg">
<path d="M25.25 8.58333C25.25 12.0351 22.4519 14.8333 19 14.8333C15.5481 14.8333 12.75 12.0351 12.75 8.58333C12.75 5.13156 15.5481 2.33333 19 2.33333C22.4519 2.33333 25.25 5.13156 25.25 8.58333Z" fill="black" stroke="black" stroke-width="3" stroke-linecap="round" stroke-linejoin="round"/>
<path d="M14.8333 27.3333C14.8333 30.7852 12.0351 33.5833 8.58334 33.5833C5.13157 33.5833 2.33334 30.7852 2.33334 27.3333C2.33334 23.8815 5.13157 21.0833 8.58334 21.0833C12.0351 21.0833 14.8333 23.8815 14.8333 27.3333Z" fill="black" stroke="black" stroke-width="3" stroke-linecap="round" stroke-linejoin="round"/>
<path d="M35.6667 27.3333C35.6667 30.7852 32.8686 33.5833 29.4167 33.5833C25.9648 33.5833 23.1667 30.7852 23.1667 27.3333C23.1667 23.8815 25.9648 21.0833 29.4167 21.0833C32.8686 21.0833 35.6667 23.8815 35.6667 27.3333Z" fill="black" stroke="black" stroke-width="3" stroke-linecap="round" stroke-linejoin="round"/>
</svg>
